# xmcd
#
# Track frame offsets:
#	150
#	12835
#	29345
#	47656
#	59637
#	71080
#	88869
#	100531
#	115734
#	128734
#	143768
#	156325
#	173918
#	190399
#	207405
#	220271
#	235947
#	247579
#	261470
#	277823
#	290675
#	308756
#	324349
#	343850
#
# Disc length: 4770 seconds
#
# Revision: 1
# Processed by: cddbd v1.5.2PL0 Copyright (c) Steve Scherf et al.
# Submitted via: audiograbber 1.83.01
#
DISCID=6512a018
DTITLE=The Country Dance Kings - Cover me in Country - cd1
DYEAR=2011
DGENRE=Country
TTITLE0=Redneck Rhythm and Blues
TTITLE1=Whatever You Do! Don't!
TTITLE2=Closer to Heaven
TTITLE3=Hillbilly Rock
TTITLE4=Whatcha Gonna Do With a Cowboy
TTITLE5=Dream Walkin'
TTITLE6=My Baby Loves Me
TTITLE7=Achy Breaky Heart
TTITLE8=Super Love
TTITLE9=(Who Says) You Can't Have It All
TTITLE10=I'm In a Hurry (And Don't Know Why)
TTITLE11=I'd Like to Have That One Back
TTITLE12=Beer and Bones
TTITLE13=Standing Outside the Fire
TTITLE14=If Bubba Can Dance (I Can Too)
TTITLE15=A Jukebox With a Country Song
TTITLE16=Boom! It Was Over
TTITLE17=What If I Do
TTITLE18=No One Else on Earth
TTITLE19=Live Until I Die
TTITLE20=You Better Think Twice
TTITLE21=You've Got to Talk to Me
TTITLE22=To Have You Back Again
TTITLE23=Rock My World (Little Country Girl)
EXTD=
EXTT0=
EXTT1=
EXTT2=
EXTT3=
EXTT4=
EXTT5=
EXTT6=
EXTT7=
EXTT8=
EXTT9=
EXTT10=
EXTT11=
EXTT12=
EXTT13=
EXTT14=
EXTT15=
EXTT16=
EXTT17=
EXTT18=
EXTT19=
EXTT20=
EXTT21=
EXTT22=
EXTT23=
PLAYORDER=
